# xmcd
#
# Track frame offsets:
#	150
#	14137
#	31575
#	51375
#	65100
#	80400
#
# Disc length: 1368 seconds
#
# Revision: 2
# Processed by: cddbd v1.5.1PL0 Copyright (c) Steve Scherf et al.
# Submitted via: dBpowerAMP V4.0
#
DISCID=4d055606
DTITLE=Cobble Hillbillies - Cobble Hillbillies
DYEAR=2005
DGENRE=Bluegrass
TTITLE0=F-Train
TTITLE1=Mississippi June
TTITLE2=Pig in a Parlour
TTITLE3=Highway 49
TTITLE4=Delmar
TTITLE5=Ben's Mental Breakdown
EXTD=
EXTT0=
EXTT1=
EXTT2=
EXTT3=
EXTT4=
EXTT5=
PLAYORDER=
